<svg width="80" height="27" viewBox="0 0 80 27" fill="none" xmlns="http://www.w3.org/2000/svg">
<path fill-rule="evenodd" clip-rule="evenodd" d="M79.75 21.8116H71.9193L66.3642 17.0549L60.829 21.7917H54.2106L51.0472 17.9492H40.1424L42.9017 14.5407H48.2647L44.1804 9.54544L29.9201 26.9062H23.305L27.4324 21.8646H20.5391L16.8125 11.417L13.1157 21.7851H6.12306L0.25 5.51081H5.61625L9.56475 16.5944L13.5 5.5605H20.125L24.0503 16.5712L27.9723 5.55719H33.3551L27.4324 21.8646L28.7507 20.2548L40.848 5.53069H47.5061L57.5728 17.8134L62.4157 13.6496L47.0887 0.40625H54.9559L79.75 21.8116ZM71.9822 11.9669L68.2887 8.80013L71.9756 5.65988L79.4287 5.6665L71.9822 11.9669Z" fill="white"/>
</svg>
