<svg width="52" height="79" viewBox="0 0 52 79" fill="none" xmlns="http://www.w3.org/2000/svg">
<path d="M22.5 75C22.5 76.933 24.067 78.5 26 78.5C27.933 78.5 29.5 76.933 29.5 75H22.5ZM28.4749 1.52512C27.108 0.158295 24.892 0.158295 23.5251 1.52512L1.25126 23.799C-0.115572 25.1658 -0.115572 27.3819 1.25126 28.7487C2.6181 30.1156 4.83418 30.1156 6.20101 28.7487L26 8.94975L45.799 28.7487C47.1658 30.1156 49.3819 30.1156 50.7487 28.7487C52.1156 27.3819 52.1156 25.1658 50.7487 23.799L28.4749 1.52512ZM29.5 75L29.5 4H22.5L22.5 75H29.5Z" fill="white"/>
</svg>
