<svg width="311" height="311" viewBox="0 0 311 311" fill="none" xmlns="http://www.w3.org/2000/svg">
<g clip-path="url(#clip0_189_180)">
<path d="M61.1129 213.128V213C61.1129 208.088 58.4922 205.599 54.2373 203.962C56.855 202.523 59.0817 200.162 59.0817 196.039V195.91C59.0817 190.147 54.4329 186.414 46.9679 186.414H29.8784V223.15H47.3616C55.676 223.214 61.1129 219.808 61.1129 213.131V213.128ZM51.0271 197.416C51.0271 200.165 48.8006 201.277 45.1995 201.277H37.7373V193.485H45.7248C49.1302 193.485 51.0271 194.86 51.0271 197.285V197.416ZM53.0584 212.083C53.0584 214.832 50.8988 216.078 47.3589 216.078H37.7373V208.021H47.0991C51.2256 208.021 53.0584 209.53 53.0584 212.016V212.083ZM78.0708 223.214V186.414H69.9524V223.149H78.0708V223.214ZM121.55 223.214V186.414H113.56V209.072L96.3391 186.414H88.8744V223.149H96.8645V199.838L114.675 223.214H121.547H121.55ZM166.334 223.214L150.558 186.219H143.096L127.314 223.214H135.631L138.969 214.964H154.489L157.827 223.214H166.34H166.334ZM151.603 207.826H141.847L146.758 195.91L151.603 207.826ZM204.905 223.214V186.414H196.915V209.072L179.694 186.414H172.229V223.149H180.219V199.838L198.03 223.214H204.902H204.905ZM246.613 217.255L241.442 212.083C238.558 214.701 236.005 216.402 231.75 216.402C225.464 216.402 221.078 211.164 221.078 204.878V204.683C221.078 198.397 225.529 193.225 231.75 193.225C235.416 193.225 238.299 194.795 241.179 197.349L246.35 191.39C242.948 188.051 238.821 185.693 231.882 185.693C220.62 185.693 212.697 194.27 212.697 204.683V204.814C212.697 215.355 220.748 223.736 231.555 223.736C238.626 223.803 242.816 221.314 246.613 217.254V217.255ZM281.122 223.214V216.011H261.149V208.284H278.501V201.081H261.149V193.616H280.859V186.414H253.162V223.149H281.122V223.214Z" fill="#F0B90B"/>
<path d="M132.768 128.609L123.486 137.894L114.114 128.609L123.483 119.24L132.768 128.609ZM155.46 105.917L171.448 121.904L180.819 112.539L155.46 87.2627L130.101 112.622L139.473 121.987L155.46 105.917ZM187.438 119.24L178.152 128.609L187.521 137.977L196.886 128.609L187.438 119.24ZM155.46 151.301L139.473 135.231L130.101 144.599L155.46 169.955L180.819 144.596L171.448 135.231L155.46 151.301ZM155.46 137.898L164.829 128.526L155.46 119.244L146.092 128.609L155.46 137.894V137.898Z" fill="#F0B90B"/>
</g>
<defs>
<clipPath id="clip0_189_180">
<rect width="311" height="311" fill="white"/>
</clipPath>
</defs>
</svg>
