<svg width="308" height="103" viewBox="0 0 308 103" fill="none" xmlns="http://www.w3.org/2000/svg">
<path fill-rule="evenodd" clip-rule="evenodd" d="M308 83.1982H277.662L256.141 64.7097L234.696 83.121H209.055L196.799 68.186H154.552L165.242 54.9376H186.019L170.196 35.5221L114.948 103H89.32L105.31 83.4043H78.6042L64.1667 42.7965L49.8447 83.0953H22.7535L0 19.8404H20.79L36.0873 62.9201L51.3333 20.0335H77L92.2075 62.83L107.402 20.0206H128.256L105.31 83.4043L110.418 77.147L157.285 19.9176H183.08L222.081 67.6581L240.843 51.4742L181.463 0H211.942L308 83.1982ZM277.906 44.9337L263.597 32.6253L277.88 20.4198L306.755 20.4455L277.906 44.9337Z" fill="white"/>
</svg>
